<?xml version="1.0"?>
<!-- Generated by SVGo -->
<svg width="295.752mm" height="105.252mm"
     viewBox="0.000 0.000 295.752 105.252"
     xmlns="http://www.w3.org/2000/svg" 
     xmlns:xlink="http://www.w3.org/1999/xlink">
<polygon points="290.752,100.252 5.001,100.252 5.001,5.001 290.752,5.001" style="fill:none;stroke-width:0.050000mm;stroke:black"/>
<polygon points="140.876,83.726 140.876,88.426 94.101,88.426 94.101,85.196 92.376,85.196 92.376,84.276 89.076,84.276 89.076,85.196 87.351,85.196 87.351,88.426 86.526,88.426 86.526,91.226 87.351,91.226 87.351,97.496 89.076,97.496 89.076,98.476 92.376,98.476 92.376,97.496 94.101,97.496 94.101,93.026 140.876,93.026 140.876,97.726 154.876,97.726 154.876,93.026 201.651,93.026 201.651,97.496 203.376,97.496 203.376,98.476 206.676,98.476 206.676,97.496 208.401,97.496 208.401,91.226 209.226,91.226 209.226,88.426 208.401,88.426 208.401,85.196 206.676,85.196 206.676,84.276 203.376,84.276 203.376,85.196 201.651,85.196 201.651,88.426 154.876,88.426 154.876,83.726" style="fill:none;stroke-width:0.050000mm;stroke:black"/>
<polygon points="7.526,83.726 7.526,97.726 21.526,97.726 21.526,83.726" style="fill:none;stroke-width:0.050000mm;stroke:black"/>
<polygon points="26.576,83.726 26.576,97.726 40.576,97.726 40.576,83.726" style="fill:none;stroke-width:0.050000mm;stroke:black"/>
<polygon points="45.626,83.726 45.626,97.726 59.626,97.726 59.626,83.726" style="fill:none;stroke-width:0.050000mm;stroke:black"/>
<polygon points="64.676,83.726 64.676,97.726 78.676,97.726 78.676,83.726" style="fill:none;stroke-width:0.050000mm;stroke:black"/>
<polygon points="217.076,83.726 217.076,97.726 231.076,97.726 231.076,83.726" style="fill:none;stroke-width:0.050000mm;stroke:black"/>
<polygon points="236.126,83.726 236.126,97.726 250.126,97.726 250.126,83.726" style="fill:none;stroke-width:0.050000mm;stroke:black"/>
<polygon points="255.176,83.726 255.176,97.726 269.176,97.726 269.176,83.726" style="fill:none;stroke-width:0.050000mm;stroke:black"/>
<polygon points="274.226,83.726 274.226,97.726 288.226,97.726 288.226,83.726" style="fill:none;stroke-width:0.050000mm;stroke:black"/>
<polygon points="17.051,64.676 17.051,69.376 15.526,69.376 15.526,66.146 13.801,66.146 13.801,65.225 10.501,65.225 10.501,66.146 8.776,66.146 8.776,69.376 7.950,69.376 7.950,72.176 8.776,72.176 8.776,78.446 10.501,78.446 10.501,79.426 13.801,79.426 13.801,78.446 15.526,78.446 15.526,73.976 17.051,73.976 17.051,78.676 31.051,78.676 31.051,73.976 32.576,73.976 32.576,78.446 34.301,78.446 34.301,79.426 37.601,79.426 37.601,78.446 39.326,78.446 39.326,72.176 40.151,72.176 40.151,69.376 39.326,69.376 39.326,66.146 37.601,66.146 37.601,65.225 34.301,65.225 34.301,66.146 32.576,66.146 32.576,69.376 31.051,69.376 31.051,64.676" style="fill:none;stroke-width:0.050000mm;stroke:black"/>
<polygon points="245.651,64.676 245.651,69.376 244.126,69.376 244.126,66.146 242.401,66.146 242.401,65.225 239.101,65.225 239.101,66.146 237.376,66.146 237.376,69.376 236.551,69.376 236.551,72.176 237.376,72.176 237.376,78.446 239.101,78.446 239.101,79.426 242.401,79.426 242.401,78.446 244.126,78.446 244.126,73.976 245.651,73.976 245.651,78.676 259.650,78.676 259.650,73.976 261.176,73.976 261.176,78.446 262.901,78.446 262.901,79.426 266.201,79.426 266.201,78.446 267.926,78.446 267.926,72.176 268.751,72.176 268.751,69.376 267.926,69.376 267.926,66.146 266.201,66.146 266.201,65.225 262.901,65.225 262.901,66.146 261.176,66.146 261.176,69.376 259.650,69.376 259.650,64.676" style="fill:none;stroke-width:0.050000mm;stroke:black"/>
<polygon points="45.626,64.676 45.626,78.676 59.626,78.676 59.626,64.676" style="fill:none;stroke-width:0.050000mm;stroke:black"/>
<polygon points="64.676,64.676 64.676,78.676 78.676,78.676 78.676,64.676" style="fill:none;stroke-width:0.050000mm;stroke:black"/>
<polygon points="83.726,64.676 83.726,78.676 97.726,78.676 97.726,64.676" style="fill:none;stroke-width:0.050000mm;stroke:black"/>
<polygon points="102.775,64.676 102.775,78.676 116.775,78.676 116.775,64.676" style="fill:none;stroke-width:0.050000mm;stroke:black"/>
<polygon points="121.825,64.676 121.825,78.676 135.826,78.676 135.826,64.676" style="fill:none;stroke-width:0.050000mm;stroke:black"/>
<polygon points="140.876,64.676 140.876,78.676 154.876,78.676 154.876,64.676" style="fill:none;stroke-width:0.050000mm;stroke:black"/>
<polygon points="159.926,64.676 159.926,78.676 173.926,78.676 173.926,64.676" style="fill:none;stroke-width:0.050000mm;stroke:black"/>
<polygon points="178.976,64.676 178.976,78.676 192.976,78.676 192.976,64.676" style="fill:none;stroke-width:0.050000mm;stroke:black"/>
<polygon points="198.026,64.676 198.026,78.676 212.026,78.676 212.026,64.676" style="fill:none;stroke-width:0.050000mm;stroke:black"/>
<polygon points="217.076,64.676 217.076,78.676 231.076,78.676 231.076,64.676" style="fill:none;stroke-width:0.050000mm;stroke:black"/>
<polygon points="274.226,64.676 274.226,78.676 288.226,78.676 288.226,64.676" style="fill:none;stroke-width:0.050000mm;stroke:black"/>
<polygon points="14.669,45.626 14.669,59.626 28.669,59.626 28.669,45.626" style="fill:none;stroke-width:0.050000mm;stroke:black"/>
<polygon points="40.863,45.626 40.863,59.626 54.863,59.626 54.863,45.626" style="fill:none;stroke-width:0.050000mm;stroke:black"/>
<polygon points="59.913,45.626 59.913,59.626 73.913,59.626 73.913,45.626" style="fill:none;stroke-width:0.050000mm;stroke:black"/>
<polygon points="78.963,45.626 78.963,59.626 92.963,59.626 92.963,45.626" style="fill:none;stroke-width:0.050000mm;stroke:black"/>
<polygon points="98.013,45.626 98.013,59.626 112.013,59.626 112.013,45.626" style="fill:none;stroke-width:0.050000mm;stroke:black"/>
<polygon points="117.063,45.626 117.063,59.626 131.063,59.626 131.063,45.626" style="fill:none;stroke-width:0.050000mm;stroke:black"/>
<polygon points="136.113,45.626 136.113,59.626 150.113,59.626 150.113,45.626" style="fill:none;stroke-width:0.050000mm;stroke:black"/>
<polygon points="155.163,45.626 155.163,59.626 169.163,59.626 169.163,45.626" style="fill:none;stroke-width:0.050000mm;stroke:black"/>
<polygon points="174.213,45.626 174.213,59.626 188.213,59.626 188.213,45.626" style="fill:none;stroke-width:0.050000mm;stroke:black"/>
<polygon points="193.263,45.626 193.263,59.626 207.263,59.626 207.263,45.626" style="fill:none;stroke-width:0.050000mm;stroke:black"/>
<polygon points="212.313,45.626 212.313,59.626 226.313,59.626 226.313,45.626" style="fill:none;stroke-width:0.050000mm;stroke:black"/>
<polygon points="231.363,45.626 231.363,59.626 245.363,59.626 245.363,45.626" style="fill:none;stroke-width:0.050000mm;stroke:black"/>
<polygon points="250.413,45.626 250.413,59.626 264.413,59.626 264.413,45.626" style="fill:none;stroke-width:0.050000mm;stroke:black"/>
<polygon points="278.344,27.001 278.344,27.826 272.074,27.826 272.074,29.551 271.094,29.551 271.094,32.851 272.074,32.851 272.074,34.576 276.544,34.576 276.544,36.101 271.844,36.101 271.844,50.101 276.544,50.101 276.544,51.626 272.074,51.626 272.074,53.351 271.094,53.351 271.094,56.651 272.074,56.651 272.074,58.376 278.344,58.376 278.344,59.201 281.144,59.201 281.144,58.376 284.374,58.376 284.374,56.651 285.294,56.651 285.294,53.351 284.374,53.351 284.374,51.626 281.144,51.626 281.144,50.101 285.844,50.101 285.844,36.101 281.144,36.101 281.144,34.576 284.374,34.576 284.374,32.851 285.294,32.851 285.294,29.551 284.374,29.551 284.374,27.826 281.144,27.826 281.144,27.001" style="fill:none;stroke-width:0.050000mm;stroke:black"/>
<polygon points="12.288,26.576 12.288,40.576 26.288,40.576 26.288,26.576" style="fill:none;stroke-width:0.050000mm;stroke:black"/>
<polygon points="36.101,26.576 36.101,40.576 50.101,40.576 50.101,26.576" style="fill:none;stroke-width:0.050000mm;stroke:black"/>
<polygon points="55.151,26.576 55.151,40.576 69.151,40.576 69.151,26.576" style="fill:none;stroke-width:0.050000mm;stroke:black"/>
<polygon points="74.201,26.576 74.201,40.576 88.201,40.576 88.201,26.576" style="fill:none;stroke-width:0.050000mm;stroke:black"/>
<polygon points="93.251,26.576 93.251,40.576 107.251,40.576 107.251,26.576" style="fill:none;stroke-width:0.050000mm;stroke:black"/>
<polygon points="112.301,26.576 112.301,40.576 126.301,40.576 126.301,26.576" style="fill:none;stroke-width:0.050000mm;stroke:black"/>
<polygon points="131.351,26.576 131.351,40.576 145.351,40.576 145.351,26.576" style="fill:none;stroke-width:0.050000mm;stroke:black"/>
<polygon points="150.401,26.576 150.401,40.576 164.401,40.576 164.401,26.576" style="fill:none;stroke-width:0.050000mm;stroke:black"/>
<polygon points="169.451,26.576 169.451,40.576 183.451,40.576 183.451,26.576" style="fill:none;stroke-width:0.050000mm;stroke:black"/>
<polygon points="188.501,26.576 188.501,40.576 202.501,40.576 202.501,26.576" style="fill:none;stroke-width:0.050000mm;stroke:black"/>
<polygon points="207.551,26.576 207.551,40.576 221.551,40.576 221.551,26.576" style="fill:none;stroke-width:0.050000mm;stroke:black"/>
<polygon points="226.601,26.576 226.601,40.576 240.601,40.576 240.601,26.576" style="fill:none;stroke-width:0.050000mm;stroke:black"/>
<polygon points="245.651,26.576 245.651,40.576 259.650,40.576 259.650,26.576" style="fill:none;stroke-width:0.050000mm;stroke:black"/>
<polygon points="7.526,7.526 7.526,21.526 21.526,21.526 21.526,7.526" style="fill:none;stroke-width:0.050000mm;stroke:black"/>
<polygon points="26.576,7.526 26.576,21.526 40.576,21.526 40.576,7.526" style="fill:none;stroke-width:0.050000mm;stroke:black"/>
<polygon points="45.626,7.526 45.626,21.526 59.626,21.526 59.626,7.526" style="fill:none;stroke-width:0.050000mm;stroke:black"/>
<polygon points="64.676,7.526 64.676,21.526 78.676,21.526 78.676,7.526" style="fill:none;stroke-width:0.050000mm;stroke:black"/>
<polygon points="83.726,7.526 83.726,21.526 97.726,21.526 97.726,7.526" style="fill:none;stroke-width:0.050000mm;stroke:black"/>
<polygon points="102.775,7.526 102.775,21.526 116.775,21.526 116.775,7.526" style="fill:none;stroke-width:0.050000mm;stroke:black"/>
<polygon points="121.825,7.526 121.825,21.526 135.826,21.526 135.826,7.526" style="fill:none;stroke-width:0.050000mm;stroke:black"/>
<polygon points="140.876,7.526 140.876,21.526 154.876,21.526 154.876,7.526" style="fill:none;stroke-width:0.050000mm;stroke:black"/>
<polygon points="159.926,7.526 159.926,21.526 173.926,21.526 173.926,7.526" style="fill:none;stroke-width:0.050000mm;stroke:black"/>
<polygon points="178.976,7.526 178.976,21.526 192.976,21.526 192.976,7.526" style="fill:none;stroke-width:0.050000mm;stroke:black"/>
<polygon points="198.026,7.526 198.026,21.526 212.026,21.526 212.026,7.526" style="fill:none;stroke-width:0.050000mm;stroke:black"/>
<polygon points="217.076,7.526 217.076,21.526 231.076,21.526 231.076,7.526" style="fill:none;stroke-width:0.050000mm;stroke:black"/>
<polygon points="236.126,7.526 236.126,21.526 250.126,21.526 250.126,7.526" style="fill:none;stroke-width:0.050000mm;stroke:black"/>
<polygon points="255.176,7.526 255.176,21.526 269.176,21.526 269.176,7.526" style="fill:none;stroke-width:0.050000mm;stroke:black"/>
<polygon points="274.226,7.526 274.226,21.526 288.226,21.526 288.226,7.526" style="fill:none;stroke-width:0.050000mm;stroke:black"/>
</svg>
